<svg width="100" height="100" viewBox="0 0 100 100" fill="none" xmlns="http://www.w3.org/2000/svg">
<circle cx="50" cy="50" r="50" fill="#7FB2F0"/>
<path d="M53 20.88C55.3467 21.04 57.56 21.3867 59.64 21.92C61.72 22.4533 63.5333 23.0933 65.08 23.84L63.4 30C62.0667 28.8267 60.44 27.9467 58.52 27.36C56.6533 26.7733 54.8133 26.4 53 26.24V43.76C54.8667 44.4 56.7067 45.12 58.52 45.92C60.3333 46.72 61.9333 47.7333 63.32 48.96C64.76 50.1867 65.9067 51.68 66.76 53.44C67.6667 55.2 68.12 57.36 68.12 59.92C68.12 62.3733 67.72 64.5067 66.92 66.32C66.12 68.08 65.0267 69.5733 63.64 70.8C62.2533 71.9733 60.6267 72.88 58.76 73.52C56.9467 74.16 55.0267 74.5867 53 74.8V81.68H48.2V74.88C45.0533 74.7733 42.12 74.32 39.4 73.52C36.7333 72.6667 34.4133 71.68 32.44 70.56L34.12 64.72C36.04 66.0533 38.04 67.2 40.12 68.16C42.2 69.0667 44.8933 69.5733 48.2 69.68V48.96C45.96 48.2133 43.9333 47.4133 42.12 46.56C40.36 45.7067 38.84 44.72 37.56 43.6C36.3333 42.4267 35.3733 41.0933 34.68 39.6C34.04 38.0533 33.72 36.24 33.72 34.16C33.72 32.0267 34.0667 30.16 34.76 28.56C35.5067 26.96 36.52 25.6267 37.8 24.56C39.1333 23.4933 40.68 22.6667 42.44 22.08C44.2 21.4933 46.12 21.12 48.2 20.96V14H53V20.88ZM61.96 61.04C61.96 59.6533 61.6933 58.4267 61.16 57.36C60.68 56.2933 60.0133 55.36 59.16 54.56C58.36 53.7067 57.4267 52.9867 56.36 52.4C55.2933 51.76 54.1733 51.2 53 50.72V69.44C56.2 69.0133 58.4933 68.0533 59.88 66.56C61.2667 65.0133 61.96 63.1733 61.96 61.04ZM39.56 33.92C39.56 34.9867 39.72 35.92 40.04 36.72C40.4133 37.52 40.9467 38.24 41.64 38.88C42.3333 39.4667 43.2133 40.0267 44.28 40.56C45.4 41.04 46.7067 41.5467 48.2 42.08V26.24C45.48 26.5067 43.3467 27.2533 41.8 28.48C40.3067 29.7067 39.56 31.52 39.56 33.92Z" fill="white"/>
</svg>
